<?xml version="1.0" encoding="UTF-8" standalone="no"?>
<!DOCTYPE svg PUBLIC "-//W3C//DTD SVG 1.1//EN" "http://www.w3.org/Graphics/SVG/1.1/DTD/svg11.dtd">
<svg width="100%" height="100%" viewBox="0 0 75 75" version="1.1" xmlns="http://www.w3.org/2000/svg" xmlns:xlink="http://www.w3.org/1999/xlink" xml:space="preserve" xmlns:serif="http://www.serif.com/" style="fill-rule:evenodd;clip-rule:evenodd;stroke-linejoin:round;stroke-miterlimit:2;">
    <g transform="matrix(1,0,0,1,-377,-100)">
        <g id="Cog-Only--white-" serif:id="Cog Only (white)" transform="matrix(0.955806,0,0,1.04536,377.018,8.42457)">
            <rect x="0" y="88.15" width="77.654" height="70.39" style="fill:none;"/>
            <g transform="matrix(4.22036,0,0,0.942854,2.2602,6.93101)">
                <g transform="matrix(0.707347,0,0,2.89495,0.176216,88.7302)">
                    <path d="M8.39,5.513C5.594,7.07 4.197,10.164 4.664,13.149L15.862,13.171L16.261,15.414L0.465,15.381C0.201,14.477 0.047,13.558 0,12.642L2.258,11.787L2.604,9.421L0.692,7.953C1.005,7.084 1.417,6.248 1.927,5.465L4.252,6.098L5.924,4.391L5.243,2.078C5.637,1.811 6.051,1.559 6.489,1.333C6.89,1.129 7.294,0.95 7.703,0.791L9.211,2.673L11.568,2.275L12.376,0C13.309,0.032 14.236,0.167 15.131,0.408L15.242,2.818L17.381,3.883L19.374,2.518C20.098,3.082 20.768,3.73 21.357,4.463L20.118,6.339L16.808,6.332C14.515,4.392 11.171,3.965 8.39,5.513Z" style="fill:white;fill-rule:nonzero;"/>
                </g>
                <g transform="matrix(0.707347,0,0,2.89495,0.176216,88.7302)">
                    <path d="M18.722,21.95C18.333,22.21 17.929,22.454 17.505,22.67C17.096,22.884 16.675,23.067 16.252,23.226L14.751,21.341L12.393,21.733L11.576,24C10.644,23.97 9.722,23.828 8.829,23.586L8.727,21.177L6.591,20.105L4.593,21.462C3.892,20.915 3.244,20.284 2.67,19.574L3.97,17.592L7.118,17.598C9.412,19.597 12.803,20.051 15.616,18.485C18.392,16.939 19.788,13.879 19.352,10.914L7.585,10.894L7.997,8.651L23.545,8.662C23.805,9.568 23.955,10.487 24,11.404L21.74,12.252L21.383,14.617L23.291,16.09C22.975,16.961 22.561,17.797 22.049,18.575L19.726,17.931L18.044,19.634L18.722,21.95" style="fill:white;fill-rule:nonzero;"/>
                </g>
            </g>
        </g>
    </g>
</svg>
